<?xml version="1.0" standalone="no"?>
<!DOCTYPE svg PUBLIC "-//W3C//DTD SVG 20010904//EN"
 "http://www.w3.org/TR/2001/REC-SVG-20010904/DTD/svg10.dtd">
<svg version="1.0" xmlns="http://www.w3.org/2000/svg"
 width="401.000000pt" height="401.000000pt" viewBox="0 0 401.000000 401.000000"
 preserveAspectRatio="xMidYMid meet">
<metadata>
Created by potrace 1.11, written by Peter Selinger 2001-2013
</metadata>
<g transform="translate(0.000000,401.000000) scale(0.100000,-0.100000)"
fill="#000000" stroke="none">
<path d="M529 2459 c-112 -67 -156 -99 -234 -175 -128 -125 -176 -219 -161
-319 6 -39 18 -56 89 -129 90 -92 148 -136 181 -136 12 0 31 -7 42 -15 18 -14
18 -16 -21 -53 -22 -20 -53 -46 -68 -57 -45 -33 -41 -95 6 -95 24 0 57 -31 57
-53 0 -18 21 -37 41 -37 10 0 24 -8 31 -17 19 -26 54 -43 87 -43 21 0 45 15
92 59 l64 59 3 -36 c2 -20 8 -42 14 -49 14 -18 57 -16 64 2 4 8 14 15 24 15
11 0 22 5 26 11 3 6 14 9 24 6 22 -6 75 24 88 50 9 17 24 118 26 172 1 15 9
27 23 32 21 8 23 5 29 -33 9 -50 37 -82 68 -74 19 5 24 0 34 -39 15 -55 36
-63 100 -35 33 14 52 30 59 48 l11 27 1 -27 c2 -41 29 -63 72 -59 11 1 18 -9
23 -30 13 -66 40 -73 124 -34 28 13 52 22 52 19 0 -3 13 4 29 15 16 12 38 21
48 21 29 0 46 26 74 110 l24 75 3 -92 c3 -90 4 -93 28 -99 17 -4 31 -1 44 11
20 18 20 17 20 -31 0 -28 5 -55 12 -62 17 -17 55 -15 62 3 3 8 14 15 25 15 11
0 22 4 25 9 3 5 14 7 24 4 9 -2 33 6 52 19 33 23 36 29 54 128 17 95 27 119
48 120 4 0 10 -17 14 -37 10 -58 31 -86 61 -80 17 3 26 -1 30 -12 16 -52 27
-71 43 -76 20 -6 100 25 118 48 12 14 16 14 42 -1 16 -9 31 -26 32 -37 2 -10
24 -32 51 -49 71 -44 195 -47 338 -10 12 3 18 -5 23 -30 9 -46 28 -60 72 -52
51 10 108 42 149 84 l36 37 -7 -42 c-4 -29 -2 -48 6 -58 14 -16 60 -20 76 -6
17 16 105 61 119 61 7 0 26 11 42 24 27 23 79 46 213 93 46 17 57 25 67 54 7
19 12 55 12 81 1 39 -4 52 -26 73 -15 14 -38 25 -49 25 -17 0 -21 5 -17 20 6
22 -40 70 -68 70 -9 0 -38 -9 -63 -20 -25 -10 -46 -16 -46 -12 0 9 51 27 167
62 40 12 76 26 79 31 7 12 12 59 16 144 l3 60 -51 0 c-44 -1 -50 2 -46 17 3
11 18 19 48 24 24 3 46 9 49 13 2 4 5 66 5 137 2 125 1 129 -19 127 -18 -2
-21 3 -21 35 0 65 -35 77 -127 46 -26 -9 -79 -18 -118 -20 -66 -2 -105 -12
-185 -47 -19 -8 -64 -27 -100 -42 -36 -16 -77 -36 -92 -46 -34 -25 -38 -24
-38 6 0 30 -30 48 -65 39 -24 -6 -25 -4 -25 40 0 40 -3 46 -24 52 -58 14 -265
-75 -337 -145 -9 -9 -35 -33 -58 -54 -22 -21 -41 -42 -41 -47 0 -6 -4 -10 -10
-10 -6 0 -10 30 -10 70 0 64 -2 71 -26 86 -19 13 -28 14 -37 5 -20 -20 -27
-12 -27 28 0 41 -20 71 -46 71 -19 0 -91 -36 -99 -51 -5 -7 -12 -2 -19 13 -6
12 -21 24 -33 26 -23 3 -89 -23 -111 -45 -21 -20 -72 -17 -72 5 0 49 -64 72
-207 75 -84 2 -88 -1 -124 -98 -12 -33 -24 -54 -26 -47 -6 15 -55 16 -71 0 -9
-9 -12 0 -12 40 0 46 -3 54 -24 63 -20 10 -30 8 -55 -10 -17 -12 -31 -26 -31
-30 0 -5 -19 -11 -42 -14 -23 -3 -48 -13 -54 -22 -10 -13 -17 -14 -33 -5 -15
7 -27 8 -40 0 -30 -15 -31 -14 -31 35 0 38 -4 47 -24 57 -14 6 -31 8 -38 6 -7
-3 -17 -7 -23 -8 -5 -1 -22 -11 -37 -21 -31 -23 -38 -24 -38 -5 0 36 -81 30
-128 -8 -38 -32 -131 -49 -154 -29 -10 9 -25 12 -37 8 -18 -5 -21 -2 -21 22 0
41 -26 73 -59 73 -15 0 -72 -26 -132 -61z m461 -43 c0 -2 -7 -7 -16 -10 -8 -3
-12 -2 -9 4 6 10 25 14 25 6z m-433 -28 c-3 -8 -6 -5 -6 6 -1 11 2 17 5 13 3
-3 4 -12 1 -19z m-37 -13 c0 -8 -4 -15 -10 -15 -5 0 -10 7 -10 15 0 8 5 15 10
15 6 0 10 -7 10 -15z m110 -19 c0 -8 -4 -18 -10 -21 -5 -3 -10 3 -10 14 0 12
5 21 10 21 6 0 10 -6 10 -14z m260 8 c0 -3 -7 -12 -16 -21 -12 -12 -18 -13
-27 -4 -9 9 -8 14 3 21 17 11 40 13 40 4z m540 -4 c0 -5 -4 -10 -10 -10 -5 0
-10 5 -10 10 0 6 5 10 10 10 6 0 10 -4 10 -10z m874 -12 c-1 -13 -3 -40 -3
-60 -1 -21 -4 -38 -8 -38 -5 0 -6 27 -5 60 2 33 7 60 11 60 4 0 7 -10 5 -22z
m-394 -8 c-19 -12 -30 -12 -30 -1 0 10 31 20 40 14 2 -2 -2 -8 -10 -13z m67 5
c0 -8 -6 -16 -13 -19 -7 -3 -10 2 -7 15 6 22 20 26 20 4z m-1487 -35 c-7 -17
-15 -28 -18 -26 -2 3 1 19 8 36 7 17 15 28 18 26 2 -3 -1 -19 -8 -36z m-60 10
c-6 -11 -17 -20 -24 -20 -19 0 -50 -37 -37 -44 6 -4 6 -17 -1 -37 -6 -16 -12
-28 -14 -26 -3 2 0 17 6 33 9 23 9 27 -1 17 -7 -7 -21 -13 -30 -13 -11 0 -16
-6 -13 -18 7 -23 -46 -74 -65 -63 -17 11 -4 34 15 27 8 -3 11 0 8 8 -5 13 58
83 116 128 42 33 55 35 40 8z m560 1 c-12 -23 -30 -36 -30 -22 0 10 27 41 36
41 3 0 0 -9 -6 -19z m820 15 c0 -2 -7 -7 -16 -10 -8 -3 -12 -2 -9 4 6 10 25
14 25 6z m-438 -33 c-25 -35 -61 -68 -67 -61 -5 5 70 88 80 88 3 0 -2 -12 -13
-27z m-467 7 c4 -6 -13 -30 -37 -53 -47 -47 -81 -66 -71 -41 3 7 10 14 15 14
15 0 37 32 38 54 0 12 5 16 15 12 9 -3 15 0 15 9 0 17 16 20 25 5z m912 -25
c-23 -22 -33 -18 -12 5 10 11 20 18 23 16 2 -3 -3 -12 -11 -21z m-1100 9 c-3
-3 -12 -4 -19 -1 -8 3 -5 6 6 6 11 1 17 -2 13 -5z m-52 -14 c3 -5 2 -10 -4
-10 -5 0 -12 -8 -15 -17 -3 -10 -17 -23 -31 -30 l-25 -11 28 39 c28 40 37 46
47 29z m1094 -19 c-6 -16 -22 -40 -37 -54 -30 -27 -49 -50 -73 -87 -9 -14 -27
-36 -39 -50 -12 -14 -28 -34 -36 -44 -18 -26 -29 -14 -13 16 10 19 200 248
206 248 1 0 -3 -13 -8 -29z m333 7 c-7 -7 -12 -8 -12 -2 0 6 3 14 7 17 3 4 9
5 12 2 2 -3 -1 -11 -7 -17z m-1679 -28 c-11 -28 -19 -37 -24 -28 -5 7 -4 15 1
16 6 2 10 9 10 16 0 10 19 36 26 36 1 0 -5 -18 -13 -40z m356 -1 c-13 -19 -25
-27 -27 -20 -4 13 38 65 46 57 2 -3 -6 -19 -19 -37z m171 33 c0 -12 -23 -32
-37 -32 -9 0 -8 6 5 19 18 21 32 26 32 13z m450 -1 c0 -5 -7 -12 -16 -15 -14
-5 -15 -4 -4 9 14 17 20 19 20 6z m605 -1 c-3 -5 -10 -10 -16 -10 -5 0 -9 5
-9 10 0 6 7 10 16 10 8 0 12 -4 9 -10z m229 -5 c-4 -8 -8 -15 -10 -15 -2 0 -4
7 -4 15 0 8 4 15 10 15 5 0 7 -7 4 -15z m-1759 -5 c3 -5 1 -10 -4 -10 -6 0
-11 5 -11 10 0 6 2 10 4 10 3 0 8 -4 11 -10z m65 -4 c0 -2 -8 -10 -17 -17 -16
-13 -17 -12 -4 4 13 16 21 21 21 13z m1525 -6 c-3 -5 -12 -10 -18 -10 -7 0 -6
4 3 10 19 12 23 12 15 0z m-605 -20 c0 -5 -5 -10 -11 -10 -5 0 -7 5 -4 10 3 6
8 10 11 10 2 0 4 -4 4 -10z m398 -15 c-15 -14 -33 -25 -40 -25 -13 0 -36 -28
-49 -60 -6 -13 -8 -12 -14 2 -4 11 -1 24 9 33 9 9 16 23 16 31 0 8 8 14 19 14
10 0 24 7 31 15 7 8 22 15 34 15 20 0 19 -1 -6 -25z m-1349 -35 c-29 -27 -59
-50 -66 -50 -24 0 -13 18 22 34 33 16 47 36 25 36 -5 0 -10 5 -10 11 0 8 4 8
15 -1 11 -10 18 -9 30 4 9 9 21 16 27 16 5 0 -14 -22 -43 -50z m681 22 c0 -5
-7 -17 -16 -28 -8 -10 -14 -14 -11 -9 2 6 7 18 10 28 7 17 17 23 17 9z m-836
-18 c3 -8 2 -12 -4 -9 -6 3 -10 10 -10 16 0 14 7 11 14 -7z m519 -36 c-17 -25
-37 -42 -47 -42 -12 2 -15 -3 -11 -20 5 -15 4 -17 -3 -7 -8 11 -10 11 -15 0
-3 -8 -5 -5 -3 6 1 11 16 36 34 55 18 19 32 38 32 41 0 8 32 18 39 13 2 -2
-10 -22 -26 -46z m887 43 c0 -5 -7 -12 -16 -15 -14 -5 -15 -4 -4 9 14 17 20
19 20 6z m321 -25 c-29 -46 -27 -60 5 -52 15 4 40 9 58 11 32 5 22 -2 -31 -20
-13 -4 -21 -11 -18 -15 3 -5 0 -12 -6 -16 -7 -4 -9 -3 -6 3 13 21 -32 20 -65
0 -59 -37 -101 -57 -107 -50 -3 3 -1 8 4 10 59 23 113 64 130 98 29 57 35 65
46 65 6 0 1 -15 -10 -34z m-726 -3 c-34 -25 -75 -44 -75 -34 0 11 82 60 90 53
3 -2 -4 -10 -15 -19z m-565 -13 c0 -5 -4 -10 -9 -10 -6 0 -13 5 -16 10 -3 6 1
10 9 10 9 0 16 -4 16 -10z m1410 0 c0 -5 -2 -10 -4 -10 -3 0 -8 5 -11 10 -3 6
-1 10 4 10 6 0 11 -4 11 -10z m-1950 -22 c0 -19 -18 -43 -25 -36 -4 3 -2 16 5
27 12 24 20 27 20 9z m70 -2 c0 -2 -10 -22 -22 -45 -25 -48 -17 -66 13 -27 30
38 49 56 60 56 14 0 11 -16 -6 -30 -8 -7 -15 -18 -14 -24 3 -25 -2 -36 -22
-47 -21 -11 -21 -10 -5 12 24 35 19 41 -10 14 -15 -14 -32 -22 -38 -18 -6 3
-8 2 -3 -2 7 -8 -20 -45 -33 -45 -4 0 -10 11 -12 25 -3 13 -1 22 4 19 4 -3 11
3 15 13 12 34 55 103 64 103 5 0 9 -2 9 -4z m93 -21 c-3 -9 -8 -14 -10 -11 -3
3 -2 9 2 15 9 16 15 13 8 -4z m795 -9 c-1 -14 -5 -23 -9 -20 -8 5 -200 -186
-267 -265 -24 -28 -51 -51 -60 -51 -11 0 -1 16 31 48 50 51 56 62 31 62 -14 0
84 98 110 110 28 12 76 55 76 67 0 8 4 12 8 9 5 -3 24 10 42 29 19 19 35 35
37 35 1 0 2 -11 1 -24z m-442 -57 c-12 -44 -15 -49 -16 -24 -2 30 -2 30 -10 5
-7 -23 -8 -22 -9 10 0 19 3 40 7 46 7 11 34 24 40 19 1 -1 -4 -26 -12 -56z
m-560 34 c-4 -9 -2 -19 3 -23 6 -3 7 -17 4 -30 -7 -24 -7 -23 -14 9 -7 32 -3
61 8 61 3 0 2 -8 -1 -17z m1534 -2 c0 -5 -14 -14 -30 -20 -17 -5 -45 -20 -61
-32 -19 -13 -34 -18 -40 -12 -6 6 4 14 26 23 19 8 35 17 35 22 0 4 11 8 24 8
14 0 28 5 31 10 8 12 15 13 15 1z m-769 -32 c-5 -13 -10 -19 -10 -12 -1 15 10
45 15 40 3 -2 0 -15 -5 -28z m479 17 c0 -2 -7 -7 -16 -10 -8 -3 -12 -2 -9 4 6
10 25 14 25 6z m-755 -104 c-1 -1 -16 5 -33 14 -34 16 -34 23 2 62 l21 24 6
-49 c3 -26 5 -49 4 -51z m715 69 c0 -5 -7 -12 -16 -15 -14 -5 -15 -4 -4 9 14
17 20 19 20 6z m-920 -17 c0 -8 -5 -12 -10 -9 -6 4 -8 11 -5 16 9 14 15 11 15
-7z m458 -14 c-7 -10 -14 -18 -15 -16 -6 6 9 36 18 36 5 0 4 -9 -3 -20z m1122
16 c0 -2 -16 -16 -35 -30 -19 -15 -35 -23 -35 -17 0 5 15 18 33 30 34 22 37
23 37 17z m-700 -16 c0 -5 -5 -10 -11 -10 -5 0 -7 5 -4 10 3 6 8 10 11 10 2 0
4 -4 4 -10z m222 -12 c-7 -7 -12 -8 -12 -2 0 6 3 14 7 17 3 4 9 5 12 2 2 -3
-1 -11 -7 -17z m-1292 2 c0 -5 -5 -10 -11 -10 -5 0 -7 5 -4 10 3 6 8 10 11 10
2 0 4 -4 4 -10z m970 0 c0 -5 -2 -10 -4 -10 -3 0 -8 5 -11 10 -3 6 -1 10 4 10
6 0 11 -4 11 -10z m223 -54 c-15 -18 -48 -48 -73 -67 -25 -19 -51 -42 -58 -51
-20 -27 -32 -22 -32 12 0 17 3 30 8 30 4 0 19 10 34 23 15 12 43 35 63 50 20
16 34 31 31 35 -3 3 4 10 17 17 37 19 44 -10 10 -49z m217 54 c-20 -13 -53
-13 -45 0 3 6 18 10 33 10 21 0 24 -2 12 -10z m-1208 -65 c-15 -36 -31 -65
-35 -65 -4 0 -3 9 3 19 5 11 10 28 10 39 0 17 35 72 45 72 2 0 -8 -29 -23 -65z
m-32 37 c0 -11 -11 -32 -25 -48 -14 -16 -25 -33 -25 -37 0 -5 -7 -15 -16 -24
-12 -12 -20 -13 -37 -5 l-22 11 23 0 c16 1 27 12 40 39 9 20 23 41 30 45 6 4
12 15 12 22 0 8 5 15 10 15 6 0 10 -8 10 -18z m759 -13 c-8 -5 -23 -9 -34 -9
-17 0 -15 4 10 20 19 12 31 16 34 9 2 -6 -3 -15 -10 -20z m-1012 -11 c-3 -8
-6 -5 -6 6 -1 11 2 17 5 13 3 -3 4 -12 1 -19z m1513 14 c0 -5 -12 -14 -27 -21
l-28 -13 20 21 c21 21 35 26 35 13z m228 -12 c-26 -20 -78 -43 -84 -37 -2 2
15 15 38 30 49 32 84 37 46 7z m-1325 -24 c-11 -11 -30 -46 -42 -76 -48 -113
-45 -109 -75 -87 -18 13 -18 16 4 63 12 27 25 63 29 79 5 23 13 31 34 33 15 2
27 7 27 12 0 4 9 6 21 3 20 -5 20 -6 2 -27z m1017 5 c0 -10 -59 -36 -65 -29
-3 3 6 11 20 18 14 7 25 17 25 22 0 5 5 6 10 3 6 -3 10 -10 10 -14z m-989 -34
c-8 -8 -11 -7 -11 4 0 20 13 34 18 19 3 -7 -1 -17 -7 -23z m159 29 c0 -3 -11
-17 -25 -32 -14 -15 -25 -22 -25 -16 0 6 10 20 22 32 22 20 28 24 28 16z m750
-16 c0 -5 -7 -10 -16 -10 -8 0 -12 5 -9 10 3 6 10 10 16 10 5 0 9 -4 9 -10z
m-380 -14 c0 -2 -7 -7 -16 -10 -8 -3 -12 -2 -9 4 6 10 25 14 25 6z m-280 -26
c0 -5 -4 -10 -10 -10 -5 0 -10 5 -10 10 0 6 5 10 10 10 6 0 10 -4 10 -10z
m190 -5 c-7 -9 -15 -13 -17 -11 -7 7 7 26 19 26 6 0 6 -6 -2 -15z m33 -35 c-5
-19 -23 -29 -23 -12 0 7 20 32 26 32 1 0 0 -9 -3 -20z m-283 -16 c0 -16 -16
-19 -25 -4 -8 13 4 32 16 25 5 -4 9 -13 9 -21z m-40 7 c0 -4 -32 -34 -71 -65
-52 -41 -77 -55 -93 -51 -11 2 -15 2 -8 -1 6 -3 12 -10 12 -15 0 -5 -11 -4
-25 3 l-24 11 36 28 c20 16 43 29 52 29 21 1 53 25 44 34 -4 4 0 4 8 1 9 -3
23 3 34 15 19 21 35 26 35 11z m458 -47 c2 -14 -6 -25 -25 -35 -34 -17 -44
-30 -38 -46 2 -7 -2 -10 -11 -6 -8 3 -23 -2 -34 -12 -10 -9 -24 -14 -31 -9 -8
4 -10 3 -5 -4 4 -7 3 -12 -3 -12 -14 0 -26 43 -13 48 6 2 29 16 51 33 23 16
44 29 49 29 4 0 14 9 22 20 17 24 34 21 38 -6z m-418 -11 c-1 -10 -50 -46 -50
-37 0 9 33 43 43 43 4 1 7 -2 7 -6z m700 -17 c-19 -17 -76 -36 -85 -28 -7 7
61 40 85 41 13 1 13 -1 0 -13z m935 -25 c-3 -6 -11 -11 -16 -11 -5 0 -4 6 3
14 14 16 24 13 13 -3z m-1050 -13 c-11 -6 -29 -20 -39 -30 -23 -21 -39 -24
-34 -5 2 6 20 20 39 29 38 20 66 24 34 6z m465 -13 c-7 -8 -17 -15 -22 -15 -6
0 -5 7 2 15 7 8 17 15 22 15 6 0 5 -7 -2 -15z m-1306 -36 c-10 -11 -20 -16
-22 -10 -2 6 -9 8 -14 5 -7 -4 -8 -2 -4 5 4 6 11 9 16 6 5 -3 11 -1 15 5 3 5
11 10 17 10 6 0 3 -9 -8 -21z m-86 -34 c-15 -14 -30 -25 -34 -25 -4 0 3 11 16
25 13 14 28 25 34 25 6 0 -1 -11 -16 -25z"/>
<path d="M293 2204 c-15 -16 -16 -24 -4 -24 8 0 24 30 19 35 -2 2 -9 -3 -15
-11z"/>
<path d="M958 1899 c-19 -20 -22 -29 -10 -29 4 0 15 12 25 25 21 29 10 32 -15
4z"/>
<path d="M543 1814 c-3 -10 -12 -23 -20 -27 -14 -9 -18 -37 -5 -37 11 0 46 69
39 76 -4 4 -10 -2 -14 -12z"/>
</g>
</svg>
